<svg width="24" height="24" viewBox="0 0 24 24" fill="none" xmlns="http://www.w3.org/2000/svg">
<path d="M3 3.25C2.58579 3.25 2.25 3.58579 2.25 4V9C2.25 9.41421 2.58579 9.75 3 9.75H8C8.41421 9.75 8.75 9.41421 8.75 9V4C8.75 3.58579 8.41421 3.25 8 3.25H3Z" fill="#FFC44D"/>
<path fill-rule="evenodd" clip-rule="evenodd" d="M14.25 6C14.25 5.58579 14.5858 5.25 15 5.25H17C17.4142 5.25 17.75 5.58579 17.75 6C17.75 6.41421 17.4142 6.75 17 6.75H15C14.5858 6.75 14.25 6.41421 14.25 6Z" fill="#CFD8DC"/>
<path d="M4 16.25C3.58579 16.25 3.25 16.5858 3.25 17C3.25 18.7949 4.70507 20.25 6.5 20.25C8.29493 20.25 9.75 18.7949 9.75 17C9.75 16.5858 9.41421 16.25 9 16.25H4Z" fill="#CFD8DC"/>
<path d="M16 16.25C15.5858 16.25 15.25 16.5858 15.25 17C15.25 18.7949 16.7051 20.25 18.5 20.25C20.2949 20.25 21.75 18.7949 21.75 17C21.75 16.5858 21.4142 16.25 21 16.25H16Z" fill="#CFD8DC"/>
<path d="M16.5 5.25C16.2893 5.25 16.0883 5.33865 15.9462 5.49425C15.8041 5.64985 15.734 5.85805 15.7531 6.0679L16.406 13.25H10.75V9C10.75 8.58579 10.4142 8.25 10 8.25H8C4.27208 8.25 1.25 11.2721 1.25 15V17C1.25 17.4142 1.58579 17.75 2 17.75H22C22.4142 17.75 22.75 17.4142 22.75 17V15C22.75 13.5905 21.6896 12.4286 20.323 12.2688L19.9123 7.75103C19.7835 6.33456 18.5959 5.25 17.1736 5.25H16.5Z" fill="#EE4D4D"/>
<path fill-rule="evenodd" clip-rule="evenodd" d="M1.25 9C1.25 8.58579 1.58579 8.25 2 8.25H12C12.4142 8.25 12.75 8.58579 12.75 9C12.75 9.41421 12.4142 9.75 12 9.75H2C1.58579 9.75 1.25 9.41421 1.25 9Z" fill="#CFD8DC"/>
</svg>
