<svg width="40" height="40" viewBox="0 0 40 40" fill="none" xmlns="http://www.w3.org/2000/svg">
<path d="M8.33333 5.41663C5.80203 5.41663 3.75 7.46865 3.75 9.99996V25C3.75 27.5313 5.80203 29.5833 8.33333 29.5833H27.1215L34.3066 34.3734C34.6902 34.6291 35.1834 34.6529 35.5898 34.4354C35.9963 34.2179 36.25 33.7943 36.25 33.3333V9.99996C36.25 7.46865 34.198 5.41663 31.6667 5.41663H8.33333Z" fill="white"/>
<path d="M11.6667 14.5833C10.0558 14.5833 8.75 15.8891 8.75 17.4999C8.75 19.1107 10.0558 20.4166 11.6667 20.4166C13.2775 20.4166 14.5833 19.1107 14.5833 17.4999C14.5833 15.8891 13.2775 14.5833 11.6667 14.5833Z" fill="#5A00D1"/>
<path d="M19.9999 14.5833C18.3891 14.5833 17.0833 15.8891 17.0833 17.4999C17.0833 19.1107 18.3891 20.4166 19.9999 20.4166C21.6107 20.4166 22.9166 19.1107 22.9166 17.4999C22.9166 15.8891 21.6107 14.5833 19.9999 14.5833Z" fill="#5A00D1"/>
<path d="M28.3334 14.5833C26.7226 14.5833 25.4167 15.8891 25.4167 17.4999C25.4167 19.1107 26.7226 20.4166 28.3334 20.4166C29.9442 20.4166 31.2501 19.1107 31.2501 17.4999C31.2501 15.8891 29.9442 14.5833 28.3334 14.5833Z" fill="#5A00D1"/>
</svg>
