<svg width="125" height="32" viewBox="0 0 125 32" fill="none" xmlns="http://www.w3.org/2000/svg">
<path fill-rule="evenodd" clip-rule="evenodd" d="M8.91244 2.95036C10.0951 2.35645 11.5345 2.7198 12.2935 3.80389L14.0916 6.37176C14.6518 7.17188 14.7298 8.21427 14.2948 9.08883L12.6345 12.427L16.824 18.4102L20.5287 17.9917C21.4993 17.8821 22.4522 18.3119 23.0124 19.112L24.8105 21.6799C25.5695 22.764 25.4187 24.2408 24.4561 25.149L21.1677 28.2517C19.393 29.9262 16.5455 29.6354 15.146 27.6367L3.39057 10.8482C1.99105 8.84947 2.69164 6.07425 4.87213 4.97928L8.91244 2.95036ZM10.1091 5.33343L6.06883 7.36235C5.342 7.72734 5.10847 8.65241 5.57497 9.31865L17.3304 26.1071C17.7969 26.7734 18.7461 26.8703 19.3376 26.3122L22.626 23.2094L20.828 20.6416L17.1233 21.06C16.1527 21.1696 15.1999 20.7398 14.6396 19.9397L10.4501 13.9565C9.88989 13.1564 9.81192 12.114 10.2469 11.2394L11.9072 7.9013L12.9302 8.41011L11.9072 7.9013L10.1091 5.33343Z" fill="#132083"/>
<path fill-rule="evenodd" clip-rule="evenodd" d="M27.9402 5.65828H21.2735V8.32495H27.9402V5.65828Z" fill="#28D139"/>
<path fill-rule="evenodd" clip-rule="evenodd" d="M29.5497 7.93441C30.0704 7.41371 30.0704 6.56949 29.5497 6.04879L26.883 3.38212L24.9974 5.26774L26.7212 6.9916L24.9974 8.71546L26.883 10.6011L29.5497 7.93441Z" fill="#28D139"/>
<path fill-rule="evenodd" clip-rule="evenodd" d="M21.9402 15.325H28.6069V12.6583H21.9402V15.325Z" fill="#28D139"/>
<path fill-rule="evenodd" clip-rule="evenodd" d="M20.3307 13.0489C19.81 13.5696 19.81 14.4138 20.3307 14.9345L22.9974 17.6012L24.883 15.7155L23.1591 13.9917L24.883 12.2678L22.9974 10.3822L20.3307 13.0489Z" fill="#28D139"/>
<path fill-rule="evenodd" clip-rule="evenodd" d="M64 4.00004C58.8453 4.00004 54.6667 8.17872 54.6667 13.3334C54.6667 17.094 57.0403 20.7744 59.6528 23.6451C60.934 25.053 62.2195 26.2081 63.1858 27.0115C63.4944 27.2681 63.7694 27.488 64 27.6678C64.2306 27.488 64.5056 27.2681 64.8142 27.0115C65.7805 26.2081 67.066 25.053 68.3472 23.6451C70.9597 20.7744 73.3333 17.094 73.3333 13.3334C73.3333 8.17872 69.1547 4.00004 64 4.00004ZM64 29.3334C63.2371 30.4269 63.2367 30.4266 63.2364 30.4264L63.2328 30.4239L63.2247 30.4182L63.197 30.3986C63.1736 30.382 63.1404 30.3582 63.098 30.3275C63.0131 30.266 62.8915 30.1767 62.7383 30.061C62.4319 29.8297 61.9988 29.4926 61.4809 29.0621C60.4472 28.2026 59.066 26.9623 57.6805 25.4399C54.9597 22.4501 52 18.1304 52 13.3334C52 6.70596 57.3726 1.33337 64 1.33337C70.6274 1.33337 76 6.70596 76 13.3334C76 18.1304 73.0403 22.4501 70.3195 25.4399C68.9341 26.9623 67.5528 28.2026 66.5191 29.0621C66.0012 29.4926 65.5681 29.8297 65.2617 30.061C65.1085 30.1767 64.9869 30.266 64.902 30.3275C64.8596 30.3582 64.8264 30.382 64.803 30.3986L64.7753 30.4182L64.7672 30.4239L64.7646 30.4257C64.7642 30.426 64.7629 30.4269 64 29.3334ZM64 29.3334L64.7629 30.4269C64.3046 30.7467 63.6947 30.7462 63.2364 30.4264L64 29.3334Z" fill="#132083"/>
<path fill-rule="evenodd" clip-rule="evenodd" d="M64 8.00004C63.2636 8.00004 62.6667 8.59699 62.6667 9.33337C62.6667 10.0698 63.2636 10.6667 64 10.6667C64.7364 10.6667 65.3333 10.0698 65.3333 9.33337C65.3333 8.59699 64.7364 8.00004 64 8.00004ZM60 9.33337C60 7.12423 61.7909 5.33337 64 5.33337C66.2091 5.33337 68 7.12423 68 9.33337C68 11.5425 66.2091 13.3334 64 13.3334C61.7909 13.3334 60 11.5425 60 9.33337Z" fill="#132083"/>
<path fill-rule="evenodd" clip-rule="evenodd" d="M64.0001 16C62.5273 16 61.3334 17.1939 61.3334 18.6667H58.6667C58.6667 15.7212 61.0546 13.3334 64.0001 13.3334C66.9456 13.3334 69.3334 15.7212 69.3334 18.6667H66.6667C66.6667 17.1939 65.4728 16 64.0001 16Z" fill="#132083"/>
<path fill-rule="evenodd" clip-rule="evenodd" d="M116.361 17.009C116.181 17.3133 115.854 17.5 115.5 17.5H104.5C103.948 17.5 103.5 17.0523 103.5 16.5V8.5C103.5 7.94771 103.948 7.5 104.5 7.5H115.5C115.854 7.5 116.181 7.6867 116.361 7.99104C116.541 8.29538 116.547 8.67212 116.376 8.98192L114.441 12.5L116.376 16.0181C116.547 16.3279 116.541 16.7046 116.361 17.009ZM113.809 15.5L112.424 12.9819C112.259 12.6818 112.259 12.3182 112.424 12.0181L113.809 9.5H105.5V15.5H113.809Z" fill="#D6378D"/>
<path fill-rule="evenodd" clip-rule="evenodd" d="M105.5 6V26H103.5V6H105.5Z" fill="#FF869C"/>
</svg>
