<svg width="48" height="45" viewBox="0 0 48 45" fill="none" xmlns="http://www.w3.org/2000/svg">
<path fill-rule="evenodd" clip-rule="evenodd" d="M41 18.8106C41 18.3013 40.5523 17.8884 40 17.8884H26C25.4477 17.8884 25 18.3013 25 18.8106V37.2546C25 37.764 25.4477 38.1768 26 38.1768H40C40.5523 38.1768 41 37.764 41 37.2546V18.8106ZM39 19.7328V36.3324H27V19.7328H39Z" fill="white"/>
<path fill-rule="evenodd" clip-rule="evenodd" d="M41 18.8106C41 18.3013 40.5523 17.8884 40 17.8884H26C25.4477 17.8884 25 18.3013 25 18.8106V28.0326C25 28.542 25.4477 28.9548 26 28.9548H40C40.5523 28.9548 41 28.542 41 28.0326V18.8106ZM39 19.7328V27.1104H27V19.7328H39Z" fill="white"/>
<path fill-rule="evenodd" clip-rule="evenodd" d="M18 13.2774C18 12.7681 17.5523 12.3552 17 12.3552H10C9.44772 12.3552 9 12.7681 9 13.2774V18.8106C9 19.3199 9.44772 19.7328 10 19.7328H17C17.5523 19.7328 18 19.3199 18 18.8106V13.2774ZM16 14.1996V17.8884H11V14.1996H16Z" fill="white"/>
<path fill-rule="evenodd" clip-rule="evenodd" d="M4 19.7328H44V17.8884H4V19.7328Z" fill="white"/>
<path fill-rule="evenodd" clip-rule="evenodd" d="M9 37.6275V18.8105H7V37.6275H9Z" fill="white"/>
<path fill-rule="evenodd" clip-rule="evenodd" d="M16.9285 9.00897L14.9285 13.62L13.0715 12.935L15.0715 8.32397L16.9285 9.00897Z" fill="white"/>
<path fill-rule="evenodd" clip-rule="evenodd" d="M9.16793 8.25576L13.1679 13.789L14.832 12.7659L10.832 7.23267L9.16793 8.25576Z" fill="white"/>
</svg>
