<svg width="40" height="40" viewBox="0 0 40 40" fill="none" xmlns="http://www.w3.org/2000/svg">
<path d="M19.3341 36.0579C19.3341 36.0579 19.3349 36.0584 20 35L20.6651 36.0584C20.2585 36.3139 19.7407 36.3134 19.3341 36.0579Z" fill="#5E94FF"/>
<path d="M19.3341 36.0579L20 35C20.6651 36.0584 20.667 36.0572 20.667 36.0572L20.6699 36.0553L20.679 36.0496L20.7095 36.0301L20.7542 36.0012L20.8184 35.9592C20.9116 35.8978 21.0451 35.8084 21.213 35.6921C21.5489 35.4595 22.0235 35.1185 22.5906 34.6772C23.723 33.7961 25.2345 32.5071 26.7496 30.8744C29.7521 27.6389 32.9167 22.8919 32.9167 17.1875C32.9167 9.81819 27.1846 3.75 20 3.75C12.8155 3.75 7.08337 9.81819 7.08337 17.1875C7.08337 22.8919 10.248 27.6389 13.2504 30.8744C14.7656 32.5071 16.2771 33.7961 17.4095 34.6772C17.9766 35.1185 18.4512 35.4595 18.787 35.6921C18.955 35.8084 19.0885 35.8978 19.1817 35.9592C19.2283 35.9898 19.2648 36.0135 19.2906 36.0301L19.3211 36.0496L19.3301 36.0553L19.3341 36.0579Z" fill="#5E94FF"/>
<path d="M13.6863 22.0957C13.5798 22.5216 13.7046 22.9722 14.0151 23.2827C14.3255 23.5932 14.7762 23.718 15.2021 23.6115L19.9162 22.433C20.136 22.3781 20.3367 22.2644 20.4969 22.1042L26.3894 16.2116C27.5285 15.0726 27.5285 13.2259 26.3894 12.0869L25.2109 10.9083C24.0719 9.76932 22.2252 9.76932 21.0861 10.9083L15.1936 16.8009C15.0334 16.9611 14.9197 17.1618 14.8648 17.3816L13.6863 22.0957Z" fill="#ECEFF1"/>
</svg>
