<svg width="48" height="45" viewBox="0 0 48 45" fill="none" xmlns="http://www.w3.org/2000/svg">
<path fill-rule="evenodd" clip-rule="evenodd" d="M8 5.90025C8 5.39092 8.44772 4.97803 9 4.97803H17C17.5523 4.97803 18 5.39092 18 5.90025V13.278C18 13.7874 17.5523 14.2003 17 14.2003H9C8.44772 14.2003 8 13.7874 8 13.278V5.90025ZM10 6.82247V12.3558H16V6.82247H10Z" fill="white"/>
<path fill-rule="evenodd" clip-rule="evenodd" d="M8 18.8114C8 18.3021 8.44772 17.8892 9 17.8892H17C17.5523 17.8892 18 18.3021 18 18.8114V26.1892C18 26.6985 17.5523 27.1114 17 27.1114H9C8.44772 27.1114 8 26.6985 8 26.1892V18.8114ZM10 19.7336V25.2669H16V19.7336H10Z" fill="white"/>
<path fill-rule="evenodd" clip-rule="evenodd" d="M8 31.7225C8 31.2132 8.44772 30.8003 9 30.8003H17C17.5523 30.8003 18 31.2132 18 31.7225V39.1003C18 39.6096 17.5523 40.0225 17 40.0225H9C8.44772 40.0225 8 39.6096 8 39.1003V31.7225ZM10 32.6447V38.1781H16V32.6447H10Z" fill="white"/>
<path fill-rule="evenodd" clip-rule="evenodd" d="M30 7.74483H22V5.90039H30V7.74483Z" fill="white"/>
<path fill-rule="evenodd" clip-rule="evenodd" d="M30 20.656H22V18.8115H30V20.656Z" fill="white"/>
<path fill-rule="evenodd" clip-rule="evenodd" d="M30 33.5671H22V31.7227H30V33.5671Z" fill="white"/>
<path fill-rule="evenodd" clip-rule="evenodd" d="M40 13.278H22V11.4336H40V13.278Z" fill="white"/>
<path fill-rule="evenodd" clip-rule="evenodd" d="M40 26.1892H22V24.3447H40V26.1892Z" fill="white"/>
<path fill-rule="evenodd" clip-rule="evenodd" d="M40 39.1003H22V37.2559H40V39.1003Z" fill="white"/>
</svg>
