<svg width="80" height="80" viewBox="0 0 80 80" fill="none" xmlns="http://www.w3.org/2000/svg">
<path fill-rule="evenodd" clip-rule="evenodd" d="M40 18.0168C27.5086 18.0168 17.5 27.8522 17.5 39.8416C17.5 41.2223 16.3807 42.3416 15 42.3416C13.6193 42.3416 12.5 41.2223 12.5 39.8416C12.5 24.9626 24.8771 13.0168 40 13.0168C41.3807 13.0168 42.5 14.1361 42.5 15.5168C42.5 16.8976 41.3807 18.0168 40 18.0168ZM51.2035 17.9523C51.9265 16.7761 53.4661 16.4086 54.6424 17.1316C59.2318 19.9523 62.9144 24.0656 65.1442 28.9634C66.6587 32.29 67.5 35.9726 67.5 39.8416C67.5 54.7206 55.1229 66.6663 40 66.6663C38.6193 66.6663 37.5 65.5471 37.5 64.1663C37.5 62.7856 38.6193 61.6663 40 61.6663C52.4914 61.6663 62.5 51.831 62.5 39.8416C62.5 36.7044 61.8191 33.7269 60.5937 31.0352C58.7862 27.0651 55.7874 23.7043 52.0242 21.3913C50.848 20.6683 50.4805 19.1286 51.2035 17.9523ZM16.2085 47.7393C17.4566 47.149 18.947 47.6822 19.5374 48.9304C21.3569 52.7774 24.3023 56.034 27.9758 58.2919C29.152 59.0149 29.5195 60.5546 28.7965 61.7308C28.0735 62.9071 26.5339 63.2746 25.3576 62.5516C20.8774 59.7979 17.2614 55.8126 15.0174 51.0682C14.4271 49.82 14.9604 48.3296 16.2085 47.7393Z" fill="black"/>
<path fill-rule="evenodd" clip-rule="evenodd" d="M47.1101 52.946C45.9567 52.1686 44.3979 52.4578 43.6285 53.5919L36.4574 64.1622C36.0385 64.7797 35.9245 65.5548 36.1468 66.2729C36.3692 66.9911 36.9043 67.5759 37.6041 67.8655L49.5828 72.8224C50.868 73.3542 52.3316 72.7575 52.8517 71.4896C53.3718 70.2217 52.7516 68.7627 51.4664 68.2309L42.3446 64.4562L47.8054 56.4069C48.5748 55.2729 48.2635 53.7233 47.1101 52.946Z" fill="black"/>
<path fill-rule="evenodd" clip-rule="evenodd" d="M28.0497 7.20468C28.7092 5.99907 30.2293 5.56335 31.445 6.23145L42.7793 12.4601C43.4423 12.8244 43.9079 13.4657 44.0468 14.2057C44.1856 14.9457 43.983 15.7057 43.4951 16.2745L35.1547 25.9986C34.26 27.0417 32.6797 27.1568 31.625 26.2557C30.5702 25.3547 30.4404 23.7787 31.335 22.7356L37.6812 15.3366L29.0571 10.5973C27.8413 9.92922 27.3903 8.41028 28.0497 7.20468Z" fill="black"/>
</svg>
