<svg width="19" height="20" viewBox="0 0 19 20" fill="none" xmlns="http://www.w3.org/2000/svg">
<path d="M7 4.08791C7 3.78987 6.82353 3.52012 6.55046 3.40072C6.27739 3.28133 5.95954 3.33494 5.74074 3.53731L1.88272 7.10567C1.31996 7.62618 1 8.35796 1 9.12452V15.75L7 7.93936V4.08791Z" fill="#FFD071"/>
<path d="M7.25 0C6.2835 0 5.5 0.783502 5.5 1.75V9.75C5.5 10.1642 5.83579 10.5 6.25 10.5H17.25C18.2165 10.5 19 9.7165 19 8.75V1.75C19 0.783502 18.2165 0 17.25 0H7.25Z" fill="#5E94FF"/>
<path fill-rule="evenodd" clip-rule="evenodd" d="M5.5 3H19V4.5H5.5V3Z" fill="#ECEFF1"/>
<path d="M1 15.75C1 16.1642 1.33579 16.5 1.75 16.5H7.25C7.52238 16.5 7.77334 16.3524 7.90562 16.1143L12.0803 8.59987C12.7283 7.43344 11.8848 6 10.5505 6H9.66421C9.20008 6 8.75497 6.18437 8.42678 6.51256L7 7.93934L1 15.75Z" fill="#FFD071"/>
<path fill-rule="evenodd" clip-rule="evenodd" d="M9.66421 7.5C9.59791 7.5 9.53432 7.52634 9.48744 7.57322L5.28033 11.7803C4.98744 12.0732 4.51256 12.0732 4.21967 11.7803C3.92678 11.4874 3.92678 11.0126 4.21967 10.7197L8.42678 6.51256C8.75496 6.18437 9.20008 6 9.66421 6H10.5505C11.8848 6 12.7283 7.43344 12.0803 8.59987L7.90562 16.1143C7.70446 16.4763 7.24786 16.6068 6.88577 16.4056C6.52368 16.2045 6.39322 15.7479 6.59438 15.3858L10.769 7.87141C10.8616 7.70478 10.7411 7.5 10.5505 7.5H9.66421Z" fill="#FFC44D"/>
<path d="M1.75 15C0.783502 15 0 15.7835 0 16.75V17.75C0 18.7165 0.783502 19.5 1.75 19.5H7.75C8.7165 19.5 9.5 18.7165 9.5 17.75V16.75C9.5 15.7835 8.7165 15 7.75 15H1.75Z" fill="#5E94FF"/>
</svg>
