<svg width="50" height="50" viewBox="0 0 50 50" fill="none" xmlns="http://www.w3.org/2000/svg">
<circle cx="25" cy="25" r="24.5" fill="white" stroke="#5A00D1"/>
<path fill-rule="evenodd" clip-rule="evenodd" d="M25 21C23.8954 21 23 21.8954 23 23C23 24.1046 23.8954 25 25 25C26.1046 25 27 24.1046 27 23C27 21.8954 26.1046 21 25 21ZM21 23C21 20.7909 22.7909 19 25 19C27.2091 19 29 20.7909 29 23C29 25.2091 27.2091 27 25 27C22.7909 27 21 25.2091 21 23Z" fill="#9545ED"/>
<path fill-rule="evenodd" clip-rule="evenodd" d="M24.9999 29.5C22.7803 29.5 20.841 30.7047 19.802 32.5007L18.0708 31.4993C19.4525 29.1107 22.0375 27.5 24.9999 27.5C27.9623 27.5 30.5473 29.1107 31.9291 31.4993L30.1978 32.5007C29.1589 30.7047 27.2195 29.5 24.9999 29.5Z" fill="#9545ED"/>
<path fill-rule="evenodd" clip-rule="evenodd" d="M25 17C20.5817 17 17 20.5817 17 25C17 29.4183 20.5817 33 25 33C29.4183 33 33 29.4183 33 25C33 20.5817 29.4183 17 25 17ZM15 25C15 19.4772 19.4772 15 25 15C30.5228 15 35 19.4772 35 25C35 30.5228 30.5228 35 25 35C19.4772 35 15 30.5228 15 25Z" fill="#3747D6"/>
</svg>
