<svg width="64" height="64" viewBox="0 0 64 64" fill="none" xmlns="http://www.w3.org/2000/svg">
<path fill-rule="evenodd" clip-rule="evenodd" d="M26.6666 7.99996C16.3573 7.99996 7.99996 16.3573 7.99996 26.6666C7.99996 36.9759 16.3573 45.3333 26.6666 45.3333C36.9759 45.3333 45.3333 36.9759 45.3333 26.6666C45.3333 16.3573 36.9759 7.99996 26.6666 7.99996ZM2.66663 26.6666C2.66663 13.4118 13.4118 2.66663 26.6666 2.66663C39.9215 2.66663 50.6666 13.4118 50.6666 26.6666C50.6666 39.9215 39.9215 50.6666 26.6666 50.6666C13.4118 50.6666 2.66663 39.9215 2.66663 26.6666Z" fill="white"/>
<path fill-rule="evenodd" clip-rule="evenodd" d="M44.5522 40.781L60.5522 56.781L56.781 60.5522L40.781 44.5522L44.5522 40.781Z" fill="white"/>
</svg>
