<svg width="64" height="64" viewBox="0 0 64 64" fill="none" xmlns="http://www.w3.org/2000/svg">
<path fill-rule="evenodd" clip-rule="evenodd" d="M41.3333 32.6665C42.4379 32.6665 43.3333 31.7711 43.3333 30.6665V13.3332C43.3333 12.2286 42.4379 11.3332 41.3333 11.3332C40.2287 11.3332 39.3333 12.2286 39.3333 13.3332V30.6665C39.3333 31.7711 40.2287 32.6665 41.3333 32.6665Z" fill="black"/>
<path fill-rule="evenodd" clip-rule="evenodd" d="M31.9191 21.4142C32.7001 22.1953 33.9665 22.1953 34.7475 21.4142L41.3333 14.8284L47.9191 21.4142C48.7001 22.1953 49.9665 22.1953 50.7475 21.4142C51.5286 20.6332 51.5286 19.3668 50.7475 18.5858L42.7475 10.5858C41.9665 9.80474 40.7001 9.80474 39.9191 10.5858L31.9191 18.5858C31.1381 19.3668 31.1381 20.6332 31.9191 21.4142Z" fill="black"/>
<path fill-rule="evenodd" clip-rule="evenodd" d="M10.6666 7.33325C8.8257 7.33325 7.33331 8.82564 7.33331 10.6666V53.3332C7.33331 55.1742 8.8257 56.6666 10.6666 56.6666H53.3333C55.1743 56.6666 56.6666 55.1742 56.6666 53.3332V41.3332C56.6666 40.2287 57.5621 39.3332 58.6666 39.3332C59.7712 39.3332 60.6666 40.2287 60.6666 41.3332V53.3332C60.6666 57.3833 57.3834 60.6666 53.3333 60.6666H10.6666C6.61656 60.6666 3.33331 57.3833 3.33331 53.3332V10.6666C3.33331 6.6165 6.61656 3.33325 10.6666 3.33325H22.6666C23.7712 3.33325 24.6666 4.22868 24.6666 5.33325C24.6666 6.43782 23.7712 7.33325 22.6666 7.33325H10.6666Z" fill="black"/>
<path fill-rule="evenodd" clip-rule="evenodd" d="M21.0267 43.4096C19.7401 41.8261 17.3456 41.7597 15.9732 43.2693L6.81321 53.3453C6.07019 54.1626 4.8053 54.2229 3.98798 53.4799C3.17067 52.7368 3.11043 51.4719 3.85345 50.6546L13.0134 40.5786C16.0328 37.2573 21.3007 37.4036 24.1312 40.8872L37.5522 57.4055C38.2488 58.2627 38.1185 59.5223 37.2612 60.2189C36.4039 60.9154 35.1443 60.7851 34.4478 59.9278L21.0267 43.4096Z" fill="black"/>
<path fill-rule="evenodd" clip-rule="evenodd" d="M46.1138 50.2756C44.8729 49.0348 42.8825 48.9685 41.5618 50.1241L34.6504 56.1717C33.8191 56.8991 32.5556 56.8149 31.8282 55.9836C31.1008 55.1523 31.1851 53.8888 32.0163 53.1614L38.9277 47.1138C41.8332 44.5715 46.2122 44.7172 48.9422 47.4472L57.4142 55.919C58.1953 56.7001 58.1953 57.9664 57.4142 58.7474C56.6332 59.5285 55.3669 59.5285 54.5858 58.7475L46.1138 50.2756Z" fill="black"/>
<path fill-rule="evenodd" clip-rule="evenodd" d="M41.3333 38C49.8017 38 56.6666 31.135 56.6666 22.6667C56.6666 14.1983 49.8017 7.33333 41.3333 7.33333C32.8649 7.33333 26 14.1983 26 22.6667C26 24.7602 26.4184 26.7509 27.1743 28.5635C27.5995 29.583 27.1177 30.7541 26.0982 31.1793C25.0787 31.6044 23.9076 31.1226 23.4825 30.1031C22.5267 27.8113 22 25.298 22 22.6667C22 11.9892 30.6558 3.33333 41.3333 3.33333C52.0108 3.33333 60.6666 11.9892 60.6666 22.6667C60.6666 33.3442 52.0108 42 41.3333 42C38.702 42 36.1887 41.4732 33.8968 40.5175C32.8774 40.0923 32.3956 38.9213 32.8207 37.9018C33.2458 36.8823 34.4169 36.4005 35.4364 36.8256C37.2491 37.5816 39.2398 38 41.3333 38Z" fill="black"/>
</svg>
