<svg width="206" height="207" viewBox="0 0 206 207" fill="none" xmlns="http://www.w3.org/2000/svg">
<circle cx="103" cy="103.651" r="102" fill="#FAFAFA" fill-opacity="0.7" stroke="url(#paint0_linear_7_1744)" stroke-width="2" stroke-dasharray="10 10"/>
<rect x="57.5" y="45.6509" width="92" height="52" rx="26" fill="#0015D1" fill-opacity="0.27"/>
<path d="M96.9375 79.1509C96.3573 79.1509 95.8009 78.9204 95.3907 78.5102C94.9805 78.0999 94.75 77.5435 94.75 76.9634V73.8384C94.75 73.5897 94.8488 73.3513 95.0246 73.1755C95.2004 72.9997 95.4389 72.9009 95.6875 72.9009C95.9361 72.9009 96.1746 72.9997 96.3504 73.1755C96.5262 73.3513 96.625 73.5897 96.625 73.8384V76.9634C96.625 77.1359 96.765 77.2759 96.9375 77.2759H110.062C110.145 77.2759 110.225 77.243 110.283 77.1844C110.342 77.1257 110.375 77.0463 110.375 76.9634V73.8384C110.375 73.5897 110.474 73.3513 110.65 73.1755C110.825 72.9997 111.064 72.9009 111.312 72.9009C111.561 72.9009 111.8 72.9997 111.975 73.1755C112.151 73.3513 112.25 73.5897 112.25 73.8384V76.9634C112.25 77.5435 112.02 78.0999 111.609 78.5102C111.199 78.9204 110.643 79.1509 110.062 79.1509H96.9375Z" fill="white"/>
<path d="M108.225 67.5511C108.312 67.6381 108.381 67.7413 108.428 67.855C108.475 67.9687 108.499 68.0905 108.499 68.2136C108.499 68.3366 108.475 68.4584 108.428 68.5721C108.381 68.6858 108.312 68.7891 108.225 68.8761C108.138 68.9631 108.035 69.0321 107.921 69.0792C107.807 69.1262 107.686 69.1505 107.563 69.1505C107.439 69.1505 107.318 69.1262 107.204 69.0792C107.09 69.0321 106.987 68.9631 106.9 68.8761L104.438 66.4148V73.5261C104.438 73.7747 104.339 74.0132 104.163 74.189C103.987 74.3648 103.749 74.4636 103.5 74.4636C103.251 74.4636 103.013 74.3648 102.837 74.189C102.661 74.0132 102.563 73.7747 102.563 73.5261V66.4148L100.1 68.8761C100.013 68.9631 99.9097 69.0321 99.7961 69.0792C99.6824 69.1262 99.5606 69.1505 99.4375 69.1505C99.3145 69.1505 99.1927 69.1262 99.079 69.0792C98.9653 69.0321 98.862 68.9631 98.775 68.8761C98.688 68.7891 98.619 68.6858 98.5719 68.5721C98.5248 68.4584 98.5006 68.3366 98.5006 68.2136C98.5006 68.0905 98.5248 67.9687 98.5719 67.855C98.619 67.7413 98.688 67.6381 98.775 67.5511L102.838 63.4886C102.924 63.4015 103.028 63.3324 103.141 63.2853C103.255 63.2381 103.377 63.2139 103.5 63.2139C103.623 63.2139 103.745 63.2381 103.859 63.2853C103.972 63.3324 104.076 63.4015 104.163 63.4886L108.225 67.5511Z" fill="white"/>
<path d="M35.2531 133.411H36.9621C36.9074 134.062 36.7251 134.643 36.4152 135.154C36.1053 135.66 35.6701 136.058 35.1096 136.35C34.549 136.642 33.8677 136.788 33.0656 136.788C32.4504 136.788 31.8967 136.678 31.4045 136.459C30.9123 136.236 30.4908 135.922 30.1398 135.516C29.7889 135.106 29.5201 134.611 29.3332 134.033C29.1509 133.454 29.0598 132.807 29.0598 132.091V131.264C29.0598 130.549 29.1532 129.902 29.34 129.323C29.5314 128.744 29.8049 128.25 30.1604 127.839C30.5158 127.425 30.9419 127.108 31.4387 126.889C31.94 126.67 32.5028 126.561 33.1272 126.561C33.9201 126.561 34.59 126.707 35.1369 126.999C35.6838 127.29 36.1076 127.694 36.4084 128.208C36.7137 128.723 36.9006 129.314 36.9689 129.979H35.26C35.2144 129.551 35.1141 129.184 34.9592 128.878C34.8088 128.573 34.5855 128.341 34.2893 128.181C33.993 128.017 33.6057 127.935 33.1272 127.935C32.7352 127.935 32.3934 128.008 32.1018 128.154C31.8101 128.3 31.5663 128.514 31.3703 128.796C31.1744 129.079 31.0262 129.428 30.926 129.842C30.8303 130.252 30.7824 130.722 30.7824 131.25V132.091C30.7824 132.593 30.8257 133.048 30.9123 133.458C31.0035 133.864 31.1402 134.213 31.3225 134.504C31.5093 134.796 31.7463 135.022 32.0334 135.181C32.3205 135.341 32.6646 135.42 33.0656 135.42C33.5533 135.42 33.9475 135.343 34.2482 135.188C34.5536 135.033 34.7837 134.807 34.9387 134.511C35.0982 134.21 35.203 133.844 35.2531 133.411ZM40.2203 126.151V136.651H38.566V126.151H40.2203ZM43.8887 129.254V136.651H42.2344V129.254H43.8887ZM42.125 127.313C42.125 127.062 42.207 126.855 42.3711 126.691C42.5397 126.522 42.7721 126.438 43.0684 126.438C43.36 126.438 43.5902 126.522 43.7588 126.691C43.9274 126.855 44.0117 127.062 44.0117 127.313C44.0117 127.559 43.9274 127.764 43.7588 127.928C43.5902 128.092 43.36 128.174 43.0684 128.174C42.7721 128.174 42.5397 128.092 42.3711 127.928C42.207 127.764 42.125 127.559 42.125 127.313ZM50.2982 139.495V130.724L50.4897 129.254H51.9594V139.495H50.2982ZM45.4926 133.028V132.884C45.4926 132.324 45.5564 131.813 45.684 131.353C45.8116 130.888 46.0007 130.489 46.2514 130.157C46.502 129.824 46.8074 129.569 47.1674 129.391C47.5274 129.209 47.9421 129.118 48.4115 129.118C48.8673 129.118 49.2637 129.204 49.601 129.377C49.9428 129.551 50.2299 129.799 50.4623 130.123C50.6993 130.442 50.8884 130.822 51.0297 131.264C51.171 131.706 51.2735 132.198 51.3373 132.741V133.199C51.2781 133.727 51.1778 134.21 51.0365 134.648C50.8952 135.085 50.7061 135.464 50.4691 135.783C50.2322 136.102 49.9428 136.35 49.601 136.528C49.2592 136.701 48.8581 136.788 48.3979 136.788C47.9376 136.788 47.5274 136.694 47.1674 136.507C46.8074 136.32 46.502 136.058 46.2514 135.721C46.0053 135.379 45.8161 134.981 45.684 134.525C45.5564 134.065 45.4926 133.566 45.4926 133.028ZM47.14 132.884V133.028C47.14 133.365 47.1697 133.682 47.2289 133.978C47.2927 134.27 47.393 134.529 47.5297 134.757C47.6664 134.981 47.8396 135.156 48.0492 135.284C48.2589 135.411 48.5118 135.475 48.808 135.475C49.1954 135.475 49.5121 135.391 49.7582 135.222C50.0089 135.054 50.2003 134.828 50.3324 134.545C50.4691 134.258 50.5648 133.942 50.6195 133.595V132.358C50.5876 132.089 50.5307 131.838 50.4486 131.606C50.3666 131.369 50.2527 131.164 50.1068 130.991C49.9656 130.813 49.7878 130.676 49.5736 130.581C49.364 130.48 49.1133 130.43 48.8217 130.43C48.5255 130.43 48.2702 130.494 48.0561 130.622C47.8419 130.749 47.6664 130.927 47.5297 131.155C47.3975 131.378 47.2995 131.638 47.2357 131.934C47.1719 132.23 47.14 132.547 47.14 132.884ZM58.2732 134.908V129.254H59.9275V136.651H58.3689L58.2732 134.908ZM58.5057 133.37L59.0594 133.356C59.0594 133.853 59.0047 134.311 58.8953 134.73C58.7859 135.145 58.6173 135.507 58.3895 135.817C58.1616 136.122 57.8699 136.361 57.5145 136.535C57.159 136.703 56.7329 136.788 56.2361 136.788C55.8761 136.788 55.5457 136.735 55.2449 136.63C54.9441 136.526 54.6844 136.364 54.4656 136.145C54.2514 135.926 54.0851 135.641 53.9666 135.291C53.8481 134.94 53.7889 134.52 53.7889 134.033V129.254H55.4363V134.046C55.4363 134.315 55.4682 134.541 55.532 134.723C55.5958 134.901 55.6824 135.044 55.7918 135.154C55.9012 135.263 56.0288 135.341 56.1746 135.386C56.3204 135.432 56.4754 135.455 56.6395 135.455C57.1089 135.455 57.478 135.363 57.7469 135.181C58.0203 134.994 58.214 134.744 58.3279 134.429C58.4464 134.115 58.5057 133.762 58.5057 133.37ZM64.9768 136.788C64.4299 136.788 63.9354 136.699 63.4934 136.521C63.0559 136.339 62.6822 136.086 62.3723 135.762C62.0669 135.439 61.8322 135.058 61.6682 134.621C61.5041 134.183 61.4221 133.711 61.4221 133.206V132.932C61.4221 132.353 61.5064 131.829 61.675 131.36C61.8436 130.89 62.0783 130.489 62.3791 130.157C62.6799 129.819 63.0354 129.562 63.4455 129.384C63.8557 129.207 64.3 129.118 64.7785 129.118C65.3072 129.118 65.7697 129.207 66.1662 129.384C66.5627 129.562 66.8908 129.813 67.1506 130.136C67.4149 130.455 67.6109 130.836 67.7385 131.278C67.8706 131.72 67.9367 132.208 67.9367 132.741V133.445H62.2219V132.262H66.3098V132.132C66.3007 131.836 66.2414 131.558 66.132 131.298C66.0272 131.039 65.8654 130.829 65.6467 130.669C65.4279 130.51 65.1363 130.43 64.7717 130.43C64.4982 130.43 64.2544 130.489 64.0402 130.608C63.8306 130.722 63.6551 130.888 63.5139 131.107C63.3726 131.326 63.2632 131.59 63.1857 131.9C63.1128 132.205 63.0764 132.549 63.0764 132.932V133.206C63.0764 133.529 63.1197 133.83 63.2063 134.108C63.2974 134.381 63.4296 134.621 63.6027 134.826C63.7759 135.031 63.9855 135.193 64.2316 135.311C64.4777 135.425 64.758 135.482 65.0725 135.482C65.4689 135.482 65.8221 135.402 66.132 135.243C66.4419 135.083 66.7108 134.858 66.9387 134.566L67.8068 135.407C67.6473 135.639 67.44 135.862 67.1848 136.077C66.9296 136.286 66.6174 136.457 66.2482 136.589C65.8837 136.722 65.4598 136.788 64.9768 136.788ZM75.0436 135.338V136.651H69.5338V135.338H75.0436ZM74.8932 130.28L70.0943 136.651H69.0279V135.591L73.7994 129.254H74.8932V130.28ZM74.2574 129.254V130.567H69.11V129.254H74.2574ZM81.8129 129.254V136.651H80.1586V129.254H81.8129ZM80.0492 127.313C80.0492 127.062 80.1313 126.855 80.2953 126.691C80.4639 126.522 80.6964 126.438 80.9926 126.438C81.2842 126.438 81.5144 126.522 81.683 126.691C81.8516 126.855 81.9359 127.062 81.9359 127.313C81.9359 127.559 81.8516 127.764 81.683 127.928C81.5144 128.092 81.2842 128.174 80.9926 128.174C80.6964 128.174 80.4639 128.092 80.2953 127.928C80.1313 127.764 80.0492 127.559 80.0492 127.313ZM86.7391 135.475C87.0079 135.475 87.2495 135.423 87.4637 135.318C87.6824 135.208 87.8579 135.058 87.99 134.867C88.1268 134.675 88.202 134.454 88.2156 134.204H89.7674C89.7583 134.682 89.617 135.117 89.3436 135.509C89.0701 135.901 88.7078 136.213 88.2566 136.446C87.8055 136.674 87.3064 136.788 86.7596 136.788C86.1945 136.788 85.7023 136.692 85.283 136.5C84.8637 136.305 84.5151 136.036 84.2371 135.694C83.9591 135.352 83.7495 134.958 83.6082 134.511C83.4715 134.065 83.4031 133.586 83.4031 133.076V132.836C83.4031 132.326 83.4715 131.847 83.6082 131.401C83.7495 130.95 83.9591 130.553 84.2371 130.211C84.5151 129.87 84.8637 129.603 85.283 129.412C85.7023 129.216 86.1922 129.118 86.7527 129.118C87.3452 129.118 87.8647 129.236 88.3113 129.473C88.7579 129.706 89.1089 130.031 89.3641 130.451C89.6238 130.865 89.7583 131.348 89.7674 131.9H88.2156C88.202 131.626 88.1336 131.38 88.0106 131.162C87.8921 130.938 87.7234 130.761 87.5047 130.628C87.2905 130.496 87.033 130.43 86.7322 130.43C86.3995 130.43 86.1238 130.499 85.9051 130.635C85.6863 130.767 85.5154 130.95 85.3924 131.182C85.2693 131.41 85.1805 131.667 85.1258 131.955C85.0757 132.237 85.0506 132.531 85.0506 132.836V133.076C85.0506 133.381 85.0757 133.677 85.1258 133.964C85.1759 134.251 85.2625 134.509 85.3856 134.737C85.5132 134.96 85.6863 135.14 85.9051 135.277C86.1238 135.409 86.4018 135.475 86.7391 135.475ZM92.8957 129.254V136.651H91.2414V129.254H92.8957ZM91.132 127.313C91.132 127.062 91.2141 126.855 91.3781 126.691C91.5467 126.522 91.7792 126.438 92.0754 126.438C92.3671 126.438 92.5972 126.522 92.7658 126.691C92.9344 126.855 93.0188 127.062 93.0188 127.313C93.0188 127.559 92.9344 127.764 92.7658 127.928C92.5972 128.092 92.3671 128.174 92.0754 128.174C91.7792 128.174 91.5467 128.092 91.3781 127.928C91.2141 127.764 91.132 127.559 91.132 127.313ZM100.041 130.676V139.495H98.3936V129.254H99.9111L100.041 130.676ZM104.86 132.884V133.028C104.86 133.566 104.797 134.065 104.669 134.525C104.546 134.981 104.361 135.379 104.115 135.721C103.874 136.058 103.575 136.32 103.22 136.507C102.864 136.694 102.454 136.788 101.989 136.788C101.529 136.788 101.126 136.703 100.779 136.535C100.438 136.361 100.148 136.118 99.9111 135.803C99.6742 135.489 99.4827 135.12 99.3369 134.696C99.1956 134.267 99.0954 133.798 99.0361 133.288V132.734C99.0954 132.192 99.1956 131.699 99.3369 131.257C99.4827 130.815 99.6742 130.435 99.9111 130.116C100.148 129.797 100.438 129.551 100.779 129.377C101.121 129.204 101.52 129.118 101.976 129.118C102.44 129.118 102.853 129.209 103.213 129.391C103.573 129.569 103.876 129.824 104.122 130.157C104.368 130.485 104.553 130.881 104.676 131.346C104.799 131.806 104.86 132.319 104.86 132.884ZM103.213 133.028V132.884C103.213 132.542 103.181 132.226 103.117 131.934C103.053 131.638 102.953 131.378 102.816 131.155C102.68 130.931 102.504 130.758 102.29 130.635C102.08 130.508 101.827 130.444 101.531 130.444C101.24 130.444 100.989 130.494 100.779 130.594C100.57 130.69 100.394 130.824 100.253 130.998C100.112 131.171 100.002 131.374 99.9248 131.606C99.8473 131.834 99.7926 132.082 99.7607 132.351V133.677C99.8154 134.005 99.9089 134.306 100.041 134.58C100.173 134.853 100.36 135.072 100.602 135.236C100.848 135.395 101.162 135.475 101.545 135.475C101.841 135.475 102.094 135.411 102.304 135.284C102.513 135.156 102.684 134.981 102.816 134.757C102.953 134.529 103.053 134.267 103.117 133.971C103.181 133.675 103.213 133.361 103.213 133.028ZM106.047 133.035V132.877C106.047 132.344 106.125 131.85 106.28 131.394C106.435 130.934 106.658 130.535 106.95 130.198C107.246 129.856 107.606 129.592 108.03 129.405C108.458 129.213 108.941 129.118 109.479 129.118C110.021 129.118 110.504 129.213 110.928 129.405C111.357 129.592 111.719 129.856 112.015 130.198C112.311 130.535 112.537 130.934 112.692 131.394C112.847 131.85 112.924 132.344 112.924 132.877V133.035C112.924 133.568 112.847 134.062 112.692 134.518C112.537 134.974 112.311 135.373 112.015 135.714C111.719 136.052 111.359 136.316 110.935 136.507C110.511 136.694 110.03 136.788 109.493 136.788C108.95 136.788 108.465 136.694 108.037 136.507C107.613 136.316 107.253 136.052 106.956 135.714C106.66 135.373 106.435 134.974 106.28 134.518C106.125 134.062 106.047 133.568 106.047 133.035ZM107.695 132.877V133.035C107.695 133.367 107.729 133.682 107.797 133.978C107.866 134.274 107.973 134.534 108.119 134.757C108.264 134.981 108.451 135.156 108.679 135.284C108.907 135.411 109.178 135.475 109.493 135.475C109.798 135.475 110.062 135.411 110.286 135.284C110.513 135.156 110.7 134.981 110.846 134.757C110.992 134.534 111.099 134.274 111.167 133.978C111.24 133.682 111.277 133.367 111.277 133.035V132.877C111.277 132.549 111.24 132.239 111.167 131.948C111.099 131.652 110.99 131.389 110.839 131.162C110.693 130.934 110.507 130.756 110.279 130.628C110.055 130.496 109.789 130.43 109.479 130.43C109.169 130.43 108.9 130.496 108.672 130.628C108.449 130.756 108.264 130.934 108.119 131.162C107.973 131.389 107.866 131.652 107.797 131.948C107.729 132.239 107.695 132.549 107.695 132.877ZM118.855 134.908V129.254H120.51V136.651H118.951L118.855 134.908ZM119.088 133.37L119.641 133.356C119.641 133.853 119.587 134.311 119.477 134.73C119.368 135.145 119.199 135.507 118.971 135.817C118.744 136.122 118.452 136.361 118.096 136.535C117.741 136.703 117.315 136.788 116.818 136.788C116.458 136.788 116.128 136.735 115.827 136.63C115.526 136.526 115.266 136.364 115.048 136.145C114.833 135.926 114.667 135.641 114.549 135.291C114.43 134.94 114.371 134.52 114.371 134.033V129.254H116.018V134.046C116.018 134.315 116.05 134.541 116.114 134.723C116.178 134.901 116.264 135.044 116.374 135.154C116.483 135.263 116.611 135.341 116.757 135.386C116.902 135.432 117.057 135.455 117.221 135.455C117.691 135.455 118.06 135.363 118.329 135.181C118.602 134.994 118.796 134.744 118.91 134.429C119.028 134.115 119.088 133.762 119.088 133.37ZM123.952 130.663V136.651H122.305V129.254H123.877L123.952 130.663ZM126.215 129.207L126.201 130.738C126.101 130.72 125.992 130.706 125.873 130.697C125.759 130.688 125.645 130.683 125.531 130.683C125.249 130.683 125.001 130.724 124.786 130.806C124.572 130.884 124.392 130.998 124.246 131.148C124.105 131.294 123.996 131.472 123.918 131.681C123.841 131.891 123.795 132.125 123.781 132.385L123.405 132.413C123.405 131.948 123.451 131.517 123.542 131.121C123.633 130.724 123.77 130.375 123.952 130.075C124.139 129.774 124.372 129.539 124.65 129.371C124.932 129.202 125.258 129.118 125.627 129.118C125.727 129.118 125.835 129.127 125.948 129.145C126.067 129.163 126.156 129.184 126.215 129.207ZM133.955 135.475C134.224 135.475 134.465 135.423 134.68 135.318C134.898 135.208 135.074 135.058 135.206 134.867C135.343 134.675 135.418 134.454 135.432 134.204H136.983C136.974 134.682 136.833 135.117 136.56 135.509C136.286 135.901 135.924 136.213 135.473 136.446C135.021 136.674 134.522 136.788 133.976 136.788C133.41 136.788 132.918 136.692 132.499 136.5C132.08 136.305 131.731 136.036 131.453 135.694C131.175 135.352 130.965 134.958 130.824 134.511C130.688 134.065 130.619 133.586 130.619 133.076V132.836C130.619 132.326 130.688 131.847 130.824 131.401C130.965 130.95 131.175 130.553 131.453 130.211C131.731 129.87 132.08 129.603 132.499 129.412C132.918 129.216 133.408 129.118 133.969 129.118C134.561 129.118 135.081 129.236 135.527 129.473C135.974 129.706 136.325 130.031 136.58 130.451C136.84 130.865 136.974 131.348 136.983 131.9H135.432C135.418 131.626 135.35 131.38 135.227 131.162C135.108 130.938 134.939 130.761 134.721 130.628C134.507 130.496 134.249 130.43 133.948 130.43C133.616 130.43 133.34 130.499 133.121 130.635C132.902 130.767 132.731 130.95 132.608 131.182C132.485 131.41 132.396 131.667 132.342 131.955C132.292 132.237 132.267 132.531 132.267 132.836V133.076C132.267 133.381 132.292 133.677 132.342 133.964C132.392 134.251 132.479 134.509 132.602 134.737C132.729 134.96 132.902 135.14 133.121 135.277C133.34 135.409 133.618 135.475 133.955 135.475ZM139.975 126.151V136.651H138.334V126.151H139.975ZM139.688 132.679L139.155 132.672C139.159 132.162 139.23 131.69 139.367 131.257C139.508 130.824 139.704 130.448 139.954 130.129C140.21 129.806 140.515 129.557 140.871 129.384C141.226 129.207 141.62 129.118 142.053 129.118C142.418 129.118 142.746 129.168 143.038 129.268C143.334 129.368 143.589 129.53 143.803 129.753C144.017 129.972 144.179 130.259 144.288 130.615C144.402 130.966 144.459 131.394 144.459 131.9V136.651H142.805V131.886C142.805 131.531 142.753 131.248 142.648 131.039C142.548 130.829 142.399 130.679 142.204 130.587C142.008 130.492 141.768 130.444 141.486 130.444C141.19 130.444 140.927 130.503 140.7 130.622C140.476 130.74 140.289 130.902 140.139 131.107C139.989 131.312 139.875 131.549 139.797 131.818C139.724 132.087 139.688 132.374 139.688 132.679ZM150.397 135.167V131.64C150.397 131.376 150.349 131.148 150.254 130.957C150.158 130.765 150.012 130.617 149.816 130.512C149.625 130.407 149.383 130.355 149.092 130.355C148.823 130.355 148.59 130.401 148.394 130.492C148.198 130.583 148.046 130.706 147.936 130.861C147.827 131.016 147.772 131.191 147.772 131.387H146.132C146.132 131.096 146.202 130.813 146.344 130.54C146.485 130.266 146.69 130.022 146.959 129.808C147.228 129.594 147.549 129.425 147.923 129.302C148.296 129.179 148.716 129.118 149.18 129.118C149.736 129.118 150.229 129.211 150.657 129.398C151.09 129.585 151.429 129.867 151.676 130.246C151.926 130.619 152.052 131.089 152.052 131.654V134.942C152.052 135.279 152.074 135.582 152.12 135.851C152.17 136.115 152.241 136.346 152.332 136.542V136.651H150.643C150.566 136.473 150.504 136.248 150.459 135.974C150.418 135.696 150.397 135.427 150.397 135.167ZM150.637 132.153L150.65 133.171H149.468C149.162 133.171 148.893 133.201 148.661 133.26C148.429 133.315 148.235 133.397 148.08 133.506C147.925 133.616 147.809 133.748 147.731 133.903C147.654 134.058 147.615 134.233 147.615 134.429C147.615 134.625 147.661 134.805 147.752 134.969C147.843 135.129 147.975 135.254 148.148 135.345C148.326 135.436 148.54 135.482 148.791 135.482C149.128 135.482 149.422 135.414 149.673 135.277C149.928 135.136 150.128 134.965 150.274 134.764C150.42 134.559 150.498 134.365 150.507 134.183L151.04 134.915C150.985 135.101 150.892 135.302 150.76 135.516C150.627 135.73 150.454 135.935 150.24 136.131C150.03 136.323 149.777 136.48 149.481 136.603C149.19 136.726 148.852 136.788 148.47 136.788C147.986 136.788 147.556 136.692 147.178 136.5C146.799 136.305 146.503 136.042 146.289 135.714C146.075 135.382 145.968 135.006 145.968 134.586C145.968 134.194 146.04 133.848 146.186 133.547C146.337 133.242 146.555 132.987 146.843 132.782C147.134 132.577 147.49 132.422 147.909 132.317C148.328 132.208 148.807 132.153 149.345 132.153H150.637ZM155.529 130.663V136.651H153.881V129.254H155.453L155.529 130.663ZM157.791 129.207L157.778 130.738C157.677 130.72 157.568 130.706 157.449 130.697C157.335 130.688 157.222 130.683 157.108 130.683C156.825 130.683 156.577 130.724 156.363 130.806C156.148 130.884 155.968 130.998 155.822 131.148C155.681 131.294 155.572 131.472 155.494 131.681C155.417 131.891 155.371 132.125 155.358 132.385L154.982 132.413C154.982 131.948 155.027 131.517 155.118 131.121C155.21 130.724 155.346 130.375 155.529 130.075C155.715 129.774 155.948 129.539 156.226 129.371C156.508 129.202 156.834 129.118 157.203 129.118C157.304 129.118 157.411 129.127 157.525 129.145C157.643 129.163 157.732 129.184 157.791 129.207ZM163.524 129.254H165.021V136.446C165.021 137.111 164.88 137.676 164.597 138.141C164.315 138.606 163.921 138.959 163.415 139.201C162.909 139.447 162.323 139.57 161.658 139.57C161.375 139.57 161.061 139.529 160.714 139.447C160.373 139.365 160.04 139.233 159.716 139.05C159.397 138.873 159.131 138.638 158.917 138.346L159.689 137.375C159.953 137.69 160.245 137.92 160.564 138.066C160.883 138.212 161.218 138.285 161.569 138.285C161.947 138.285 162.268 138.214 162.533 138.073C162.802 137.936 163.009 137.733 163.155 137.464C163.301 137.195 163.374 136.867 163.374 136.48V130.929L163.524 129.254ZM158.5 133.035V132.891C158.5 132.331 158.568 131.82 158.705 131.36C158.841 130.895 159.037 130.496 159.293 130.164C159.548 129.826 159.858 129.569 160.222 129.391C160.587 129.209 160.999 129.118 161.46 129.118C161.938 129.118 162.346 129.204 162.683 129.377C163.025 129.551 163.31 129.799 163.538 130.123C163.766 130.442 163.943 130.824 164.071 131.271C164.203 131.713 164.301 132.205 164.365 132.748V133.206C164.306 133.734 164.205 134.217 164.064 134.655C163.923 135.092 163.736 135.471 163.504 135.79C163.271 136.109 162.984 136.355 162.642 136.528C162.305 136.701 161.906 136.788 161.446 136.788C160.995 136.788 160.587 136.694 160.222 136.507C159.862 136.32 159.552 136.058 159.293 135.721C159.037 135.384 158.841 134.987 158.705 134.532C158.568 134.071 158.5 133.572 158.5 133.035ZM160.147 132.891V133.035C160.147 133.372 160.179 133.686 160.243 133.978C160.311 134.27 160.414 134.527 160.55 134.75C160.692 134.969 160.869 135.142 161.084 135.27C161.302 135.393 161.56 135.455 161.856 135.455C162.243 135.455 162.56 135.373 162.806 135.208C163.057 135.044 163.248 134.823 163.38 134.545C163.517 134.263 163.613 133.948 163.668 133.602V132.365C163.64 132.096 163.583 131.845 163.497 131.613C163.415 131.38 163.303 131.178 163.162 131.004C163.02 130.827 162.843 130.69 162.629 130.594C162.414 130.494 162.161 130.444 161.87 130.444C161.574 130.444 161.316 130.508 161.097 130.635C160.879 130.763 160.699 130.938 160.557 131.162C160.421 131.385 160.318 131.645 160.25 131.941C160.181 132.237 160.147 132.554 160.147 132.891ZM170.091 136.788C169.544 136.788 169.049 136.699 168.607 136.521C168.17 136.339 167.796 136.086 167.486 135.762C167.181 135.439 166.946 135.058 166.782 134.621C166.618 134.183 166.536 133.711 166.536 133.206V132.932C166.536 132.353 166.62 131.829 166.789 131.36C166.958 130.89 167.192 130.489 167.493 130.157C167.794 129.819 168.149 129.562 168.56 129.384C168.97 129.207 169.414 129.118 169.893 129.118C170.421 129.118 170.884 129.207 171.28 129.384C171.677 129.562 172.005 129.813 172.265 130.136C172.529 130.455 172.725 130.836 172.853 131.278C172.985 131.72 173.051 132.208 173.051 132.741V133.445H167.336V132.262H171.424V132.132C171.415 131.836 171.355 131.558 171.246 131.298C171.141 131.039 170.979 130.829 170.761 130.669C170.542 130.51 170.25 130.43 169.886 130.43C169.612 130.43 169.368 130.489 169.154 130.608C168.945 130.722 168.769 130.888 168.628 131.107C168.487 131.326 168.377 131.59 168.3 131.9C168.227 132.205 168.19 132.549 168.19 132.932V133.206C168.19 133.529 168.234 133.83 168.32 134.108C168.411 134.381 168.544 134.621 168.717 134.826C168.89 135.031 169.1 135.193 169.346 135.311C169.592 135.425 169.872 135.482 170.187 135.482C170.583 135.482 170.936 135.402 171.246 135.243C171.556 135.083 171.825 134.858 172.053 134.566L172.921 135.407C172.761 135.639 172.554 135.862 172.299 136.077C172.044 136.286 171.731 136.457 171.362 136.589C170.998 136.722 170.574 136.788 170.091 136.788ZM176.09 130.663V136.651H174.443V129.254H176.015L176.09 130.663ZM178.353 129.207L178.339 130.738C178.239 130.72 178.13 130.706 178.011 130.697C177.897 130.688 177.783 130.683 177.669 130.683C177.387 130.683 177.138 130.724 176.924 130.806C176.71 130.884 176.53 130.998 176.384 131.148C176.243 131.294 176.134 131.472 176.056 131.681C175.979 131.891 175.933 132.125 175.919 132.385L175.543 132.413C175.543 131.948 175.589 131.517 175.68 131.121C175.771 130.724 175.908 130.375 176.09 130.075C176.277 129.774 176.51 129.539 176.788 129.371C177.07 129.202 177.396 129.118 177.765 129.118C177.865 129.118 177.972 129.127 178.086 129.145C178.205 129.163 178.294 129.184 178.353 129.207ZM74.9816 155.345L76.7932 149.254H78.5021L75.9318 156.651H74.8654L74.9816 155.345ZM73.5939 149.254L75.4396 155.373L75.5285 156.651H74.4621L71.8781 149.254H73.5939ZM79.1969 153.035V152.877C79.1969 152.344 79.2743 151.85 79.4293 151.394C79.5842 150.934 79.8075 150.535 80.0992 150.198C80.3954 149.856 80.7555 149.592 81.1793 149.405C81.6077 149.213 82.0908 149.118 82.6285 149.118C83.1708 149.118 83.6539 149.213 84.0777 149.405C84.5061 149.592 84.8684 149.856 85.1646 150.198C85.4609 150.535 85.6865 150.934 85.8414 151.394C85.9964 151.85 86.0738 152.344 86.0738 152.877V153.035C86.0738 153.568 85.9964 154.062 85.8414 154.518C85.6865 154.974 85.4609 155.373 85.1646 155.714C84.8684 156.052 84.5084 156.316 84.0846 156.507C83.6607 156.694 83.1799 156.788 82.6422 156.788C82.0999 156.788 81.6145 156.694 81.1861 156.507C80.7623 156.316 80.4023 156.052 80.1061 155.714C79.8098 155.373 79.5842 154.974 79.4293 154.518C79.2743 154.062 79.1969 153.568 79.1969 153.035ZM80.8443 152.877V153.035C80.8443 153.367 80.8785 153.682 80.9469 153.978C81.0152 154.274 81.1223 154.534 81.2682 154.757C81.414 154.981 81.6008 155.156 81.8287 155.284C82.0566 155.411 82.3277 155.475 82.6422 155.475C82.9475 155.475 83.2118 155.411 83.4352 155.284C83.663 155.156 83.8499 154.981 83.9957 154.757C84.1415 154.534 84.2486 154.274 84.317 153.978C84.3899 153.682 84.4264 153.367 84.4264 153.035V152.877C84.4264 152.549 84.3899 152.239 84.317 151.948C84.2486 151.652 84.1393 151.389 83.9889 151.162C83.843 150.934 83.6562 150.756 83.4283 150.628C83.205 150.496 82.9384 150.43 82.6285 150.43C82.3186 150.43 82.0497 150.496 81.8219 150.628C81.5986 150.756 81.414 150.934 81.2682 151.162C81.1223 151.389 81.0152 151.652 80.9469 151.948C80.8785 152.239 80.8443 152.549 80.8443 152.877ZM90.9453 149.254V150.458H86.7754V149.254H90.9453ZM87.9785 147.443H89.626V154.607C89.626 154.835 89.6579 155.01 89.7217 155.133C89.79 155.252 89.8835 155.332 90.002 155.373C90.1204 155.414 90.2594 155.434 90.4189 155.434C90.5329 155.434 90.6423 155.427 90.7471 155.414C90.8519 155.4 90.9362 155.386 91 155.373L91.0068 156.63C90.8701 156.671 90.7106 156.708 90.5283 156.74C90.3506 156.772 90.1455 156.788 89.9131 156.788C89.5348 156.788 89.1999 156.722 88.9082 156.589C88.6165 156.453 88.3887 156.232 88.2246 155.926C88.0605 155.621 87.9785 155.215 87.9785 154.709V147.443ZM93.9711 150.663V156.651H92.3236V149.254H93.8959L93.9711 150.663ZM96.2338 149.207L96.2201 150.738C96.1199 150.72 96.0105 150.706 95.892 150.697C95.7781 150.688 95.6641 150.683 95.5502 150.683C95.2676 150.683 95.0193 150.724 94.8051 150.806C94.5909 150.884 94.4109 150.998 94.265 151.148C94.1238 151.294 94.0144 151.472 93.9369 151.681C93.8594 151.891 93.8139 152.125 93.8002 152.385L93.4242 152.413C93.4242 151.948 93.4698 151.517 93.5609 151.121C93.6521 150.724 93.7888 150.375 93.9711 150.075C94.1579 149.774 94.3904 149.539 94.6684 149.371C94.9509 149.202 95.2768 149.118 95.6459 149.118C95.7462 149.118 95.8533 149.127 95.9672 149.145C96.0857 149.163 96.1745 149.184 96.2338 149.207ZM100.49 156.788C99.9432 156.788 99.4487 156.699 99.0066 156.521C98.5691 156.339 98.1954 156.086 97.8855 155.762C97.5802 155.439 97.3455 155.058 97.1814 154.621C97.0174 154.183 96.9353 153.711 96.9353 153.206V152.932C96.9353 152.353 97.0197 151.829 97.1883 151.36C97.3569 150.89 97.5916 150.489 97.8924 150.157C98.1932 149.819 98.5486 149.562 98.9588 149.384C99.3689 149.207 99.8133 149.118 100.292 149.118C100.82 149.118 101.283 149.207 101.679 149.384C102.076 149.562 102.404 149.813 102.664 150.136C102.928 150.455 103.124 150.836 103.252 151.278C103.384 151.72 103.45 152.208 103.45 152.741V153.445H97.7352V152.262H101.823V152.132C101.814 151.836 101.755 151.558 101.645 151.298C101.54 151.039 101.379 150.829 101.16 150.669C100.941 150.51 100.65 150.43 100.285 150.43C100.012 150.43 99.7677 150.489 99.5535 150.608C99.3439 150.722 99.1684 150.888 99.0271 151.107C98.8859 151.326 98.7765 151.59 98.699 151.9C98.6261 152.205 98.5896 152.549 98.5896 152.932V153.206C98.5896 153.529 98.6329 153.83 98.7195 154.108C98.8107 154.381 98.9428 154.621 99.116 154.826C99.2892 155.031 99.4988 155.193 99.7449 155.311C99.991 155.425 100.271 155.482 100.586 155.482C100.982 155.482 101.335 155.402 101.645 155.243C101.955 155.083 102.224 154.858 102.452 154.566L103.32 155.407C103.161 155.639 102.953 155.862 102.698 156.077C102.443 156.286 102.131 156.457 101.762 156.589C101.397 156.722 100.973 156.788 100.49 156.788ZM110.185 146.151V156.651H108.531V146.151H110.185ZM111.775 153.035V152.877C111.775 152.344 111.853 151.85 112.008 151.394C112.163 150.934 112.386 150.535 112.678 150.198C112.974 149.856 113.334 149.592 113.758 149.405C114.186 149.213 114.669 149.118 115.207 149.118C115.749 149.118 116.232 149.213 116.656 149.405C117.085 149.592 117.447 149.856 117.743 150.198C118.039 150.535 118.265 150.934 118.42 151.394C118.575 151.85 118.652 152.344 118.652 152.877V153.035C118.652 153.568 118.575 154.062 118.42 154.518C118.265 154.974 118.039 155.373 117.743 155.714C117.447 156.052 117.087 156.316 116.663 156.507C116.239 156.694 115.758 156.788 115.221 156.788C114.678 156.788 114.193 156.694 113.765 156.507C113.341 156.316 112.981 156.052 112.685 155.714C112.388 155.373 112.163 154.974 112.008 154.518C111.853 154.062 111.775 153.568 111.775 153.035ZM113.423 152.877V153.035C113.423 153.367 113.457 153.682 113.525 153.978C113.594 154.274 113.701 154.534 113.847 154.757C113.993 154.981 114.179 155.156 114.407 155.284C114.635 155.411 114.906 155.475 115.221 155.475C115.526 155.475 115.79 155.411 116.014 155.284C116.242 155.156 116.428 154.981 116.574 154.757C116.72 154.534 116.827 154.274 116.896 153.978C116.968 153.682 117.005 153.367 117.005 153.035V152.877C117.005 152.549 116.968 152.239 116.896 151.948C116.827 151.652 116.718 151.389 116.567 151.162C116.422 150.934 116.235 150.756 116.007 150.628C115.784 150.496 115.517 150.43 115.207 150.43C114.897 150.43 114.628 150.496 114.4 150.628C114.177 150.756 113.993 150.934 113.847 151.162C113.701 151.389 113.594 151.652 113.525 151.948C113.457 152.239 113.423 152.549 113.423 152.877ZM124.871 149.254H126.368V156.446C126.368 157.111 126.226 157.676 125.944 158.141C125.661 158.606 125.267 158.959 124.761 159.201C124.255 159.447 123.67 159.57 123.004 159.57C122.722 159.57 122.407 159.529 122.061 159.447C121.719 159.365 121.386 159.233 121.063 159.05C120.744 158.873 120.477 158.638 120.263 158.346L121.036 157.375C121.3 157.69 121.592 157.92 121.911 158.066C122.23 158.212 122.565 158.285 122.915 158.285C123.294 158.285 123.615 158.214 123.879 158.073C124.148 157.936 124.356 157.733 124.501 157.464C124.647 157.195 124.72 156.867 124.72 156.48V150.929L124.871 149.254ZM119.846 153.035V152.891C119.846 152.331 119.914 151.82 120.051 151.36C120.188 150.895 120.384 150.496 120.639 150.164C120.894 149.826 121.204 149.569 121.569 149.391C121.933 149.209 122.346 149.118 122.806 149.118C123.285 149.118 123.692 149.204 124.03 149.377C124.371 149.551 124.656 149.799 124.884 150.123C125.112 150.442 125.29 150.824 125.417 151.271C125.55 151.713 125.648 152.205 125.711 152.748V153.206C125.652 153.734 125.552 154.217 125.411 154.655C125.269 155.092 125.082 155.471 124.85 155.79C124.618 156.109 124.33 156.355 123.989 156.528C123.651 156.701 123.253 156.788 122.792 156.788C122.341 156.788 121.933 156.694 121.569 156.507C121.209 156.32 120.899 156.058 120.639 155.721C120.384 155.384 120.188 154.987 120.051 154.532C119.914 154.071 119.846 153.572 119.846 153.035ZM121.494 152.891V153.035C121.494 153.372 121.525 153.686 121.589 153.978C121.658 154.27 121.76 154.527 121.897 154.75C122.038 154.969 122.216 155.142 122.43 155.27C122.649 155.393 122.906 155.455 123.203 155.455C123.59 155.455 123.907 155.373 124.153 155.208C124.403 155.044 124.595 154.823 124.727 154.545C124.864 154.263 124.959 153.948 125.014 153.602V152.365C124.987 152.096 124.93 151.845 124.843 151.613C124.761 151.38 124.649 151.178 124.508 151.004C124.367 150.827 124.189 150.69 123.975 150.594C123.761 150.494 123.508 150.444 123.216 150.444C122.92 150.444 122.662 150.508 122.444 150.635C122.225 150.763 122.045 150.938 121.904 151.162C121.767 151.385 121.664 151.645 121.596 151.941C121.528 152.237 121.494 152.554 121.494 152.891ZM127.862 153.035V152.877C127.862 152.344 127.94 151.85 128.095 151.394C128.249 150.934 128.473 150.535 128.764 150.198C129.061 149.856 129.421 149.592 129.845 149.405C130.273 149.213 130.756 149.118 131.294 149.118C131.836 149.118 132.319 149.213 132.743 149.405C133.171 149.592 133.534 149.856 133.83 150.198C134.126 150.535 134.352 150.934 134.507 151.394C134.662 151.85 134.739 152.344 134.739 152.877V153.035C134.739 153.568 134.662 154.062 134.507 154.518C134.352 154.974 134.126 155.373 133.83 155.714C133.534 156.052 133.174 156.316 132.75 156.507C132.326 156.694 131.845 156.788 131.307 156.788C130.765 156.788 130.28 156.694 129.851 156.507C129.428 156.316 129.068 156.052 128.771 155.714C128.475 155.373 128.249 154.974 128.095 154.518C127.94 154.062 127.862 153.568 127.862 153.035ZM129.51 152.877V153.035C129.51 153.367 129.544 153.682 129.612 153.978C129.68 154.274 129.788 154.534 129.933 154.757C130.079 154.981 130.266 155.156 130.494 155.284C130.722 155.411 130.993 155.475 131.307 155.475C131.613 155.475 131.877 155.411 132.1 155.284C132.328 155.156 132.515 154.981 132.661 154.757C132.807 154.534 132.914 154.274 132.982 153.978C133.055 153.682 133.092 153.367 133.092 153.035V152.877C133.092 152.549 133.055 152.239 132.982 151.948C132.914 151.652 132.804 151.389 132.654 151.162C132.508 150.934 132.321 150.756 132.094 150.628C131.87 150.496 131.604 150.43 131.294 150.43C130.984 150.43 130.715 150.496 130.487 150.628C130.264 150.756 130.079 150.934 129.933 151.162C129.788 151.389 129.68 151.652 129.612 151.948C129.544 152.239 129.51 152.549 129.51 152.877Z" fill="#979797"/>
<defs>
<linearGradient id="paint0_linear_7_1744" x1="103" y1="0.650879" x2="103" y2="206.651" gradientUnits="userSpaceOnUse">
<stop stop-color="#0011A6"/>
<stop offset="1" stop-color="#000740"/>
</linearGradient>
</defs>
</svg>
